<?xml version="1.0" encoding="UTF-8" standalone="no"?>
<!-- Created with Inkscape (http://www.inkscape.org/) -->

<svg
   xmlns:dc="http://purl.org/dc/elements/1.1/"
   xmlns:cc="http://creativecommons.org/ns#"
   xmlns:rdf="http://www.w3.org/1999/02/22-rdf-syntax-ns#"
   xmlns:svg="http://www.w3.org/2000/svg"
   xmlns="http://www.w3.org/2000/svg"
   xmlns:sodipodi="http://sodipodi.sourceforge.net/DTD/sodipodi-0.dtd"
   xmlns:inkscape="http://www.inkscape.org/namespaces/inkscape"
   width="539.51013"
   height="186.74945"
   id="svg2"
   version="1.1"
   inkscape:version="0.47 r22583"
   sodipodi:docname="FAAM.svg">
  <defs
     id="defs4">
    <inkscape:perspective
       sodipodi:type="inkscape:persp3d"
       inkscape:vp_x="0 : 526.18109 : 1"
       inkscape:vp_y="0 : 1000 : 0"
       inkscape:vp_z="744.09448 : 526.18109 : 1"
       inkscape:persp3d-origin="372.04724 : 350.78739 : 1"
       id="perspective10" />
  </defs>
  <sodipodi:namedview
     id="base"
     pagecolor="#ffffff"
     bordercolor="#666666"
     borderopacity="1.0"
     inkscape:pageopacity="0.0"
     inkscape:pageshadow="2"
     inkscape:zoom="0.78490088"
     inkscape:cx="262.73834"
     inkscape:cy="-46.947267"
     inkscape:document-units="px"
     inkscape:current-layer="text2816"
     showgrid="false"
     inkscape:window-width="1080"
     inkscape:window-height="1868"
     inkscape:window-x="-4"
     inkscape:window-y="27"
     inkscape:window-maximized="1" />
  <metadata
     id="metadata7">
    <rdf:RDF>
      <cc:Work
         rdf:about="">
        <dc:format>image/svg+xml</dc:format>
        <dc:type
           rdf:resource="http://purl.org/dc/dcmitype/StillImage" />
        <dc:title />
      </cc:Work>
    </rdf:RDF>
  </metadata>
  <g
     inkscape:label="Layer 1"
     inkscape:groupmode="layer"
     id="layer1"
     transform="translate(-109.3089,-292.48437)">
    <g
       style="font-size:210.14440918px;font-style:normal;font-weight:normal;fill:#132042;fill-opacity:1;stroke:none;font-family:Titillium;-inkscape-font-specification:Titillium"
       id="text2816">
      <path
         d="m 130.05639,442.2207 28.99993,0 11.3478,-49.38393 43.92018,0 6.09419,-25.21733 -44.13033,0 9.87679,-43.07961 53.37668,0 5.88404,-25.21733 -82.37661,0 -32.99267,142.8982"
         style="font-style:italic;font-weight:bold;fill:#132042"
         id="path2822" />
      <path
         d="m 202.71322,442.2207 28.99993,0 11.13766,-24.79704 41.60859,0 -0.84058,24.79704 28.99993,0 4.41303,-142.8982 -50.01437,0 -64.30419,142.8982 m 81.32589,-117.68087 4.41303,0 -2.94202,67.6665 -31.73181,0 30.2608,-67.6665"
         style="font-style:italic;font-weight:bold;fill:#132042"
         id="path2824" />
      <path
         d="m 318.45682,442.2207 28.99993,0 11.13765,-24.79704 41.6086,0 -0.84058,24.79704 28.99993,0 4.41303,-142.8982 -50.01437,0 -64.30419,142.8982 m 81.32589,-117.68087 4.41303,0 -2.94202,67.6665 -31.73181,0 30.2608,-67.6665"
         style="font-style:italic;font-weight:bold;fill:#132042"
         id="path2826" />
      <path
         d="m 433.66152,442.2207 28.99993,0 26.89849,-117.68087 1.05072,0 0.21014,111.37654 27.31878,0 51.06509,-111.37654 1.26086,0 -27.31877,117.68087 28.99993,0 32.99267,-142.8982 -45.81148,0 -47.49264,104.02149 -0.21014,-104.02149 -44.9709,0 -32.99268,142.8982"
         style="font-style:italic;font-weight:bold;fill:#132042"
         id="path2828" />
    </g>
    <path
       id="path2831"
       style="font-size:23.34937859px;font-style:normal;font-weight:normal;fill:#132042;fill-opacity:1;stroke:none;font-family:Titillium;-inkscape-font-specification:Titillium"
       d="m 129.06397,467.21213 1.7979,0 0,-6.67792 6.65457,0 0,-1.58776 -6.65457,0 0,-6.30433 7.86874,0 0,-1.58776 -9.66664,0 0,16.15777" />
    <path
       id="path2833"
       style="font-size:23.34937859px;font-style:normal;font-weight:normal;fill:#132042;fill-opacity:1;stroke:none;font-family:Titillium;-inkscape-font-specification:Titillium"
       d="m 148.49503,459.06319 c 0,-2.54508 -1.12078,-3.75925 -3.75925,-3.75925 -2.00805,0 -4.57648,0.51369 -4.57648,0.51369 l 0.0701,1.33092 c 0,0 2.77858,-0.30355 4.41303,-0.30355 1.40096,0 2.10144,0.58374 2.10144,2.21819 l 0,1.00403 -3.66585,0.35024 c -2.40498,0.23349 -3.57245,1.21417 -3.57245,3.45571 0,2.35828 1.16747,3.57245 3.29226,3.57245 2.10144,0 4.20289,-0.93397 4.20289,-0.93397 0.70048,0.70048 1.54106,0.93397 2.77857,0.93397 l 0.0701,-1.37761 c -0.74718,-0.0934 -1.30756,-0.35024 -1.35426,-1.02737 l 0,-5.97745 m -1.75121,2.33494 0,3.85265 c 0,0 -1.938,0.72383 -3.66585,0.72383 -1.19082,0 -1.77455,-0.79388 -1.77455,-2.14814 0,-1.28422 0.56039,-1.96135 1.9847,-2.10145 l 3.4557,-0.32689" />
    <path
       id="path2835"
       style="font-size:23.34937859px;font-style:normal;font-weight:normal;fill:#132042;fill-opacity:1;stroke:none;font-family:Titillium;-inkscape-font-specification:Titillium"
       d="m 156.33932,455.30394 c -3.47905,0 -4.85667,1.63447 -4.85667,5.8607 0,4.57647 1.09743,6.28098 4.80998,6.28098 1.07407,0 3.24556,-0.32689 3.24556,-0.32689 l -0.07,-1.44766 c 0,0 -1.86795,0.21014 -2.75523,0.21014 -2.89532,0 -3.43235,-1.26087 -3.43235,-4.71657 0,-3.12881 0.72383,-4.29629 3.40901,-4.29629 0.88727,0 2.75522,0.21015 2.75522,0.21015 l 0.07,-1.42431 c 0,0 -2.10144,-0.35025 -3.17552,-0.35025" />
    <path
       id="path2837"
       style="font-size:23.34937859px;font-style:normal;font-weight:normal;fill:#132042;fill-opacity:1;stroke:none;font-family:Titillium;-inkscape-font-specification:Titillium"
       d="m 162.14274,467.21213 1.7512,0 0,-11.67469 -1.7512,0 0,11.67469 m 0,-14.31317 1.7512,0 0,-2.0314 -1.7512,0 0,2.0314" />
    <path
       id="path2839"
       style="font-size:23.34937859px;font-style:normal;font-weight:normal;fill:#132042;fill-opacity:1;stroke:none;font-family:Titillium;-inkscape-font-specification:Titillium"
       d="m 167.39051,467.21213 1.7512,0 0,-16.76486 -1.7512,0 0,16.76486" />
    <path
       id="path2841"
       style="font-size:23.34937859px;font-style:normal;font-weight:normal;fill:#132042;fill-opacity:1;stroke:none;font-family:Titillium;-inkscape-font-specification:Titillium"
       d="m 172.63172,467.21213 1.7512,0 0,-11.67469 -1.7512,0 0,11.67469 m 0,-14.31317 1.7512,0 0,-2.0314 -1.7512,0 0,2.0314" />
    <path
       id="path2843"
       style="font-size:23.34937859px;font-style:normal;font-weight:normal;fill:#132042;fill-opacity:1;stroke:none;font-family:Titillium;-inkscape-font-specification:Titillium"
       d="m 183.78688,457.05515 0,-1.51771 -3.71255,0 0,-3.57246 -1.72785,0 0,3.57246 -1.65781,0 0,1.51771 1.65781,0 0,6.14088 c 0,3.36231 0.81723,4.27294 3.22221,4.27294 0.81723,0 2.38164,-0.25684 2.38164,-0.25684 l -0.11675,-1.44766 c 0,0 -1.42431,0.14009 -2.07809,0.14009 -1.51771,0 -1.68116,-0.72383 -1.68116,-3.26891 l 0,-5.5805 3.71255,0" />
    <path
       id="path2845"
       style="font-size:23.34937859px;font-style:normal;font-weight:normal;fill:#132042;fill-opacity:1;stroke:none;font-family:Titillium;-inkscape-font-specification:Titillium"
       d="m 184.85074,455.53744 3.31561,11.67469 1.72786,0 -1.51771,5.18356 1.7512,0 4.85667,-16.85825 -1.7512,0 -2.94202,10.15698 -0.77053,0 -2.91868,-10.15698 -1.7512,0" />
    <path
       id="path2847"
       style="font-size:23.34937859px;font-style:normal;font-weight:normal;fill:#132042;fill-opacity:1;stroke:none;font-family:Titillium;-inkscape-font-specification:Titillium"
       d="m 204.60724,457.05515 3.38566,0 0,-1.51771 -3.38566,0 0,-1.02737 c 0,-2.17149 0.42029,-2.73188 1.72785,-2.73188 0.70048,0 2.00805,0.0467 2.00805,0.0467 l 0.0233,-1.44766 c 0,0 -1.56441,-0.16345 -2.35829,-0.16345 -2.28824,0 -3.15217,0.91063 -3.15217,4.27294 l 0,1.05072 -1.47101,0 0,1.51771 1.47101,0 0,10.15698 1.75121,0 0,-10.15698" />
    <path
       id="path2849"
       style="font-size:23.34937859px;font-style:normal;font-weight:normal;fill:#132042;fill-opacity:1;stroke:none;font-family:Titillium;-inkscape-font-specification:Titillium"
       d="m 214.32787,455.30394 c -3.6892,0 -4.99677,1.91466 -4.99677,5.93075 0,4.24958 1.07408,6.21093 4.99677,6.21093 3.94604,0 4.99677,-1.96135 4.99677,-6.21093 0,-4.01609 -1.28422,-5.93075 -4.99677,-5.93075 m 0,10.62397 c -2.75522,0 -3.19886,-1.37761 -3.19886,-4.69322 0,-3.24556 0.72383,-4.41304 3.19886,-4.41304 2.49838,0 3.19887,1.16748 3.19887,4.41304 0,3.31561 -0.4203,4.69322 -3.19887,4.69322" />
    <path
       id="path2851"
       style="font-size:23.34937859px;font-style:normal;font-weight:normal;fill:#132042;fill-opacity:1;stroke:none;font-family:Titillium;-inkscape-font-specification:Titillium"
       d="m 222.15794,467.21213 1.7512,0 0,-8.56922 c 0,0 2.05475,-1.14412 4.24959,-1.58776 l 0,-1.77455 c -2.24154,0.44363 -4.27294,1.8446 -4.27294,1.8446 l 0,-1.58776 -1.72785,0 0,11.67469" />
    <path
       id="path2853"
       style="font-size:23.34937859px;font-style:normal;font-weight:normal;fill:#132042;fill-opacity:1;stroke:none;font-family:Titillium;-inkscape-font-specification:Titillium"
       d="m 234.2624,467.21213 1.77456,0 1.16747,-4.15619 6.91141,0 1.16747,4.15619 1.77455,0 -4.43638,-16.15777 -3.92269,0 -4.43639,16.15777 m 5.79065,-14.61671 1.21417,0 2.45168,8.84941 -6.11754,0 2.45169,-8.84941" />
    <path
       id="path2855"
       style="font-size:23.34937859px;font-style:normal;font-weight:normal;fill:#132042;fill-opacity:1;stroke:none;font-family:Titillium;-inkscape-font-specification:Titillium"
       d="m 249.29247,467.21213 1.7512,0 0,-11.67469 -1.7512,0 0,11.67469 m 0,-14.31317 1.7512,0 0,-2.0314 -1.7512,0 0,2.0314" />
    <path
       id="path2857"
       style="font-size:23.34937859px;font-style:normal;font-weight:normal;fill:#132042;fill-opacity:1;stroke:none;font-family:Titillium;-inkscape-font-specification:Titillium"
       d="m 254.40015,467.21213 1.7512,0 0,-8.56922 c 0,0 2.05475,-1.14412 4.24959,-1.58776 l 0,-1.77455 c -2.24154,0.44363 -4.27294,1.8446 -4.27294,1.8446 l 0,-1.58776 -1.72785,0 0,11.67469" />
    <path
       id="path2859"
       style="font-size:23.34937859px;font-style:normal;font-weight:normal;fill:#132042;fill-opacity:1;stroke:none;font-family:Titillium;-inkscape-font-specification:Titillium"
       d="m 267.63231,455.30394 c -1.65781,0 -3.43236,0.81723 -3.43236,0.81723 l 0,-5.6739 -1.72786,0 0,16.74151 c 0,0 2.49839,0.25684 3.89935,0.25684 4.24958,0 5.51045,-1.61111 5.51045,-6.25763 0,-4.20289 -1.07407,-5.88405 -4.24958,-5.88405 m -1.28422,10.57727 c -0.63043,0 -2.14814,-0.11674 -2.14814,-0.11674 l 0,-8.21899 c 0,0 1.63446,-0.67713 3.24556,-0.67713 2.05475,0 2.66183,1.30757 2.66183,4.31964 0,3.26891 -0.56039,4.69322 -3.75925,4.69322" />
    <path
       id="path2861"
       style="font-size:23.34937859px;font-style:normal;font-weight:normal;fill:#132042;fill-opacity:1;stroke:none;font-family:Titillium;-inkscape-font-specification:Titillium"
       d="m 279.22272,455.30394 c -3.6892,0 -4.99676,1.91466 -4.99676,5.93075 0,4.24958 1.07407,6.21093 4.99676,6.21093 3.94604,0 4.99677,-1.96135 4.99677,-6.21093 0,-4.01609 -1.28422,-5.93075 -4.99677,-5.93075 m 0,10.62397 c -2.75522,0 -3.19886,-1.37761 -3.19886,-4.69322 0,-3.24556 0.72383,-4.41304 3.19886,-4.41304 2.49838,0 3.19887,1.16748 3.19887,4.41304 0,3.31561 -0.42029,4.69322 -3.19887,4.69322" />
    <path
       id="path2863"
       style="font-size:23.34937859px;font-style:normal;font-weight:normal;fill:#132042;fill-opacity:1;stroke:none;font-family:Titillium;-inkscape-font-specification:Titillium"
       d="m 287.0528,467.21213 1.7512,0 0,-8.56922 c 0,0 2.05475,-1.14412 4.24959,-1.58776 l 0,-1.77455 c -2.24154,0.44363 -4.27294,1.8446 -4.27294,1.8446 l 0,-1.58776 -1.72785,0 0,11.67469" />
    <path
       id="path2865"
       style="font-size:23.34937859px;font-style:normal;font-weight:normal;fill:#132042;fill-opacity:1;stroke:none;font-family:Titillium;-inkscape-font-specification:Titillium"
       d="m 296.87595,467.21213 0,-9.47985 c 0,0 1.61111,-0.86393 3.29226,-0.86393 2.17149,0 2.52173,1.14413 2.52173,4.22624 l 0,6.11754 1.72786,0 0,-6.16424 c 0,-4.15618 -0.72384,-5.74395 -3.94605,-5.74395 -1.72785,0 -3.61915,1.05073 -3.61915,1.05073 l 0,-0.81723 -1.72786,0 0,11.67469 1.75121,0" />
    <path
       id="path2867"
       style="font-size:23.34937859px;font-style:normal;font-weight:normal;fill:#132042;fill-opacity:1;stroke:none;font-family:Titillium;-inkscape-font-specification:Titillium"
       d="m 311.98555,465.90456 c -2.28824,0 -3.05877,-1.30757 -3.05877,-3.80595 l 7.70529,0 0.0934,-1.33091 c 0,-3.8293 -1.58776,-5.46376 -4.69322,-5.46376 -2.96537,0 -4.88002,1.70451 -4.88002,6.14089 0,3.96939 1.14412,6.00079 4.62317,6.00079 1.8913,0 4.55313,-0.37359 4.55313,-0.37359 l -0.0467,-1.37761 c 0,0 -2.54508,0.21014 -4.29628,0.21014 m -3.08212,-5.20691 c 0.0233,-2.82527 1.14412,-3.92269 3.12882,-3.92269 2.05474,0 2.94202,1.02737 2.94202,3.92269 l -6.07084,0" />
    <path
       id="path2869"
       style="font-size:23.34937859px;font-style:normal;font-weight:normal;fill:#132042;fill-opacity:1;stroke:none;font-family:Titillium;-inkscape-font-specification:Titillium"
       d="m 323.50992,467.21213 1.77456,0 1.16747,-4.15619 6.91141,0 1.16747,4.15619 1.77455,0 -4.43638,-16.15777 -3.92269,0 -4.43639,16.15777 m 5.79065,-14.61671 1.21417,0 2.45168,8.84941 -6.11753,0 2.45168,-8.84941" />
    <path
       id="path2871"
       style="font-size:23.34937859px;font-style:normal;font-weight:normal;fill:#132042;fill-opacity:1;stroke:none;font-family:Titillium;-inkscape-font-specification:Titillium"
       d="m 344.22265,457.05515 0,-1.51771 -3.71255,0 0,-3.57246 -1.72786,0 0,3.57246 -1.6578,0 0,1.51771 1.6578,0 0,6.14088 c 0,3.36231 0.81723,4.27294 3.22222,4.27294 0.81722,0 2.38163,-0.25684 2.38163,-0.25684 l -0.11674,-1.44766 c 0,0 -1.42432,0.14009 -2.0781,0.14009 -1.51771,0 -1.68115,-0.72383 -1.68115,-3.26891 l 0,-5.5805 3.71255,0" />
    <path
       id="path2873"
       style="font-size:23.34937859px;font-style:normal;font-weight:normal;fill:#132042;fill-opacity:1;stroke:none;font-family:Titillium;-inkscape-font-specification:Titillium"
       d="m 348.13513,467.21213 0,-9.47985 c 0,0 1.47102,-0.86393 3.12882,-0.86393 2.12479,0 2.45168,1.09743 2.45168,4.31964 l 0,6.02414 1.75121,0 0,-6.07084 c 0,-1.40096 -0.0934,-2.87197 -0.30354,-3.40901 0,0 1.56441,-0.86393 3.29226,-0.86393 2.10144,0 2.45168,1.14413 2.45168,4.22624 l 0,6.11754 1.75121,0 0,-6.16424 c 0,-4.22623 -0.77054,-5.74395 -3.94605,-5.74395 -2.07809,0 -4.15619,1.19082 -4.15619,1.19082 -0.60708,-0.84057 -1.47101,-1.19082 -3.03542,-1.19082 -1.6578,0 -3.40901,1.05073 -3.40901,1.05073 l 0,-0.81723 -1.72785,0 0,11.67469 1.7512,0" />
    <path
       id="path2875"
       style="font-size:23.34937859px;font-style:normal;font-weight:normal;fill:#132042;fill-opacity:1;stroke:none;font-family:Titillium;-inkscape-font-specification:Titillium"
       d="m 370.38563,455.30394 c -3.6892,0 -4.99677,1.91466 -4.99677,5.93075 0,4.24958 1.07407,6.21093 4.99677,6.21093 3.94604,0 4.99676,-1.96135 4.99676,-6.21093 0,-4.01609 -1.28422,-5.93075 -4.99676,-5.93075 m 0,10.62397 c -2.75523,0 -3.19887,-1.37761 -3.19887,-4.69322 0,-3.24556 0.72383,-4.41304 3.19887,-4.41304 2.49838,0 3.19886,1.16748 3.19886,4.41304 0,3.31561 -0.42029,4.69322 -3.19886,4.69322" />
    <path
       id="path2877"
       style="font-size:23.34937859px;font-style:normal;font-weight:normal;fill:#132042;fill-opacity:1;stroke:none;font-family:Titillium;-inkscape-font-specification:Titillium"
       d="m 386.01439,455.74758 c 0,0 -2.47503,-0.44364 -4.22623,-0.44364 -2.1248,0 -4.20289,0.84058 -4.20289,3.40901 0,2.33494 1.26087,2.82528 3.89934,3.24557 2.54508,0.39694 3.15217,0.70048 3.15217,1.91465 0,1.58775 -1.02737,2.00804 -2.94202,2.00804 -1.19082,0 -3.85265,-0.39694 -3.85265,-0.39694 l -0.0934,1.51771 c 0,0 2.61514,0.44364 4.10949,0.44364 2.80193,0 4.52978,-0.91063 4.52978,-3.6425 0,-2.26489 -1.09742,-2.84863 -4.01609,-3.33896 -2.47503,-0.42029 -3.03542,-0.72383 -3.03542,-1.82125 0,-1.37762 1.09742,-1.77456 2.54508,-1.77456 1.49436,0 4.08614,0.37359 4.08614,0.37359 l 0.0467,-1.49436" />
    <path
       id="path2879"
       style="font-size:23.34937859px;font-style:normal;font-weight:normal;fill:#132042;fill-opacity:1;stroke:none;font-family:Titillium;-inkscape-font-specification:Titillium"
       d="m 389.06951,472.39569 1.7512,0 0,-5.20691 c 0.32689,0.07 1.51771,0.25684 2.61513,0.25684 3.5958,0 5.09017,-1.63446 5.09017,-6.21093 0,-4.13284 -1.28422,-5.93075 -4.22624,-5.93075 -1.72785,0 -3.50241,1.07408 -3.50241,1.07408 l 0,-0.84058 -1.72785,0 0,16.85825 m 4.97341,-15.52734 c 1.70451,0 2.70853,1.16748 2.70853,4.36634 0,3.3623 -0.84058,4.69322 -3.40901,4.69322 -1.00402,0 -2.21819,-0.21014 -2.52173,-0.25684 l 0,-7.86874 c 0,0 1.63446,-0.93398 3.22221,-0.93398" />
    <path
       id="path2881"
       style="font-size:23.34937859px;font-style:normal;font-weight:normal;fill:#132042;fill-opacity:1;stroke:none;font-family:Titillium;-inkscape-font-specification:Titillium"
       d="m 403.13385,467.21213 0,-9.6433 c 0,0 1.63446,-0.70048 3.29226,-0.70048 2.14814,0 2.49839,1.14413 2.49839,4.22624 l 0,6.11754 1.7512,0 0,-6.16424 c 0,-4.15618 -0.74718,-5.74395 -3.94604,-5.74395 -1.72786,0 -3.59581,0.88728 -3.59581,0.88728 l 0,-5.74395 -1.7512,0 0,16.76486 1.7512,0" />
    <path
       id="path2883"
       style="font-size:23.34937859px;font-style:normal;font-weight:normal;fill:#132042;fill-opacity:1;stroke:none;font-family:Titillium;-inkscape-font-specification:Titillium"
       d="m 418.24345,465.90456 c -2.28824,0 -3.05877,-1.30757 -3.05877,-3.80595 l 7.7053,0 0.0934,-1.33091 c 0,-3.8293 -1.58776,-5.46376 -4.69322,-5.46376 -2.96537,0 -4.88002,1.70451 -4.88002,6.14089 0,3.96939 1.14412,6.00079 4.62318,6.00079 1.89129,0 4.55313,-0.37359 4.55313,-0.37359 l -0.0467,-1.37761 c 0,0 -2.54509,0.21014 -4.29629,0.21014 m -3.08212,-5.20691 c 0.0233,-2.82527 1.14412,-3.92269 3.12882,-3.92269 2.05474,0 2.94202,1.02737 2.94202,3.92269 l -6.07084,0" />
    <path
       id="path2885"
       style="font-size:23.34937859px;font-style:normal;font-weight:normal;fill:#132042;fill-opacity:1;stroke:none;font-family:Titillium;-inkscape-font-specification:Titillium"
       d="m 425.73534,467.21213 1.7512,0 0,-8.56922 c 0,0 2.05475,-1.14412 4.24959,-1.58776 l 0,-1.77455 c -2.24154,0.44363 -4.27294,1.8446 -4.27294,1.8446 l 0,-1.58776 -1.72785,0 0,11.67469" />
    <path
       id="path2887"
       style="font-size:23.34937859px;font-style:normal;font-weight:normal;fill:#132042;fill-opacity:1;stroke:none;font-family:Titillium;-inkscape-font-specification:Titillium"
       d="m 433.8073,467.21213 1.7512,0 0,-11.67469 -1.7512,0 0,11.67469 m 0,-14.31317 1.7512,0 0,-2.0314 -1.7512,0 0,2.0314" />
    <path
       id="path2889"
       style="font-size:23.34937859px;font-style:normal;font-weight:normal;fill:#132042;fill-opacity:1;stroke:none;font-family:Titillium;-inkscape-font-specification:Titillium"
       d="m 443.2813,455.30394 c -3.47905,0 -4.85667,1.63447 -4.85667,5.8607 0,4.57647 1.09742,6.28098 4.80997,6.28098 1.07407,0 3.24556,-0.32689 3.24556,-0.32689 l -0.07,-1.44766 c 0,0 -1.86795,0.21014 -2.75523,0.21014 -2.89532,0 -3.43236,-1.26087 -3.43236,-4.71657 0,-3.12881 0.72383,-4.29629 3.40901,-4.29629 0.88728,0 2.75523,0.21015 2.75523,0.21015 l 0.07,-1.42431 c 0,0 -2.10144,-0.35025 -3.17551,-0.35025" />
    <path
       id="path2891"
       style="font-size:23.34937859px;font-style:normal;font-weight:normal;fill:#132042;fill-opacity:1;stroke:none;font-family:Titillium;-inkscape-font-specification:Titillium"
       d="m 454.54154,467.21213 1.7979,0 0,-14.24312 0.32689,0 4.69322,13.65938 2.00805,0 4.69323,-13.65938 0.32689,0 0,14.24312 1.7979,0 0,-16.15777 -3.24556,0 -4.57648,13.65938 -4.57648,-13.65938 -3.24556,0 0,16.15777" />
    <path
       id="path2893"
       style="font-size:23.34937859px;font-style:normal;font-weight:normal;fill:#132042;fill-opacity:1;stroke:none;font-family:Titillium;-inkscape-font-specification:Titillium"
       d="m 478.03065,465.90456 c -2.28824,0 -3.05877,-1.30757 -3.05877,-3.80595 l 7.7053,0 0.0934,-1.33091 c 0,-3.8293 -1.58777,-5.46376 -4.69323,-5.46376 -2.96537,0 -4.88002,1.70451 -4.88002,6.14089 0,3.96939 1.14412,6.00079 4.62318,6.00079 1.8913,0 4.55313,-0.37359 4.55313,-0.37359 l -0.0467,-1.37761 c 0,0 -2.54509,0.21014 -4.29629,0.21014 m -3.08212,-5.20691 c 0.0233,-2.82527 1.14413,-3.92269 3.12882,-3.92269 2.05474,0 2.94202,1.02737 2.94202,3.92269 l -6.07084,0" />
    <path
       id="path2895"
       style="font-size:23.34937859px;font-style:normal;font-weight:normal;fill:#132042;fill-opacity:1;stroke:none;font-family:Titillium;-inkscape-font-specification:Titillium"
       d="m 493.76484,459.06319 c 0,-2.54508 -1.12077,-3.75925 -3.75925,-3.75925 -2.00804,0 -4.57648,0.51369 -4.57648,0.51369 l 0.0701,1.33092 c 0,0 2.77858,-0.30355 4.41303,-0.30355 1.40096,0 2.10145,0.58374 2.10145,2.21819 l 0,1.00403 -3.66586,0.35024 c -2.40498,0.23349 -3.57245,1.21417 -3.57245,3.45571 0,2.35828 1.16747,3.57245 3.29226,3.57245 2.10144,0 4.20289,-0.93397 4.20289,-0.93397 0.70048,0.70048 1.54106,0.93397 2.77858,0.93397 l 0.07,-1.37761 c -0.74718,-0.0934 -1.30756,-0.35024 -1.35426,-1.02737 l 0,-5.97745 m -1.7512,2.33494 0,3.85265 c 0,0 -1.938,0.72383 -3.66586,0.72383 -1.19081,0 -1.77455,-0.79388 -1.77455,-2.14814 0,-1.28422 0.56039,-1.96135 1.9847,-2.10145 l 3.45571,-0.32689" />
    <path
       id="path2897"
       style="font-size:23.34937859px;font-style:normal;font-weight:normal;fill:#132042;fill-opacity:1;stroke:none;font-family:Titillium;-inkscape-font-specification:Titillium"
       d="m 505.04151,455.74758 c 0,0 -2.47504,-0.44364 -4.22624,-0.44364 -2.12479,0 -4.20289,0.84058 -4.20289,3.40901 0,2.33494 1.26087,2.82528 3.89935,3.24557 2.54508,0.39694 3.15217,0.70048 3.15217,1.91465 0,1.58775 -1.02738,2.00804 -2.94203,2.00804 -1.19081,0 -3.85264,-0.39694 -3.85264,-0.39694 l -0.0934,1.51771 c 0,0 2.61513,0.44364 4.10949,0.44364 2.80192,0 4.52978,-0.91063 4.52978,-3.6425 0,-2.26489 -1.09743,-2.84863 -4.01609,-3.33896 -2.47504,-0.42029 -3.03542,-0.72383 -3.03542,-1.82125 0,-1.37762 1.09742,-1.77456 2.54508,-1.77456 1.49436,0 4.08614,0.37359 4.08614,0.37359 l 0.0467,-1.49436" />
    <path
       id="path2899"
       style="font-size:23.34937859px;font-style:normal;font-weight:normal;fill:#132042;fill-opacity:1;stroke:none;font-family:Titillium;-inkscape-font-specification:Titillium"
       d="m 515.38161,455.53744 0,9.47985 c 0,0 -1.47101,0.86392 -3.19886,0.86392 -2.17149,0 -2.45169,-1.05072 -2.45169,-4.27293 l 0,-6.07084 -1.7512,0 0,6.09419 c 0,4.29628 0.67713,5.81399 3.94604,5.81399 1.70451,0 3.45571,-1.05072 3.45571,-1.05072 l 0,0.81723 1.75121,0 0,-11.67469 -1.75121,0" />
    <path
       id="path2901"
       style="font-size:23.34937859px;font-style:normal;font-weight:normal;fill:#132042;fill-opacity:1;stroke:none;font-family:Titillium;-inkscape-font-specification:Titillium"
       d="m 520.50096,467.21213 1.75121,0 0,-8.56922 c 0,0 2.05475,-1.14412 4.24958,-1.58776 l 0,-1.77455 c -2.24153,0.44363 -4.27293,1.8446 -4.27293,1.8446 l 0,-1.58776 -1.72786,0 0,11.67469" />
    <path
       id="path2903"
       style="font-size:23.34937859px;font-style:normal;font-weight:normal;fill:#132042;fill-opacity:1;stroke:none;font-family:Titillium;-inkscape-font-specification:Titillium"
       d="m 532.66453,465.90456 c -2.28823,0 -3.05877,-1.30757 -3.05877,-3.80595 l 7.7053,0 0.0934,-1.33091 c 0,-3.8293 -1.58776,-5.46376 -4.69323,-5.46376 -2.96537,0 -4.88002,1.70451 -4.88002,6.14089 0,3.96939 1.14412,6.00079 4.62318,6.00079 1.8913,0 4.55313,-0.37359 4.55313,-0.37359 l -0.0467,-1.37761 c 0,0 -2.54509,0.21014 -4.29629,0.21014 m -3.08212,-5.20691 c 0.0234,-2.82527 1.14413,-3.92269 3.12882,-3.92269 2.05474,0 2.94202,1.02737 2.94202,3.92269 l -6.07084,0" />
    <path
       id="path2905"
       style="font-size:23.34937859px;font-style:normal;font-weight:normal;fill:#132042;fill-opacity:1;stroke:none;font-family:Titillium;-inkscape-font-specification:Titillium"
       d="m 541.90762,467.21213 0,-9.47985 c 0,0 1.47102,-0.86393 3.12882,-0.86393 2.12479,0 2.45169,1.09743 2.45169,4.31964 l 0,6.02414 1.7512,0 0,-6.07084 c 0,-1.40096 -0.0934,-2.87197 -0.30354,-3.40901 0,0 1.56441,-0.86393 3.29226,-0.86393 2.10144,0 2.45168,1.14413 2.45168,4.22624 l 0,6.11754 1.75121,0 0,-6.16424 c 0,-4.22623 -0.77054,-5.74395 -3.94605,-5.74395 -2.07809,0 -4.15619,1.19082 -4.15619,1.19082 -0.60708,-0.84057 -1.47101,-1.19082 -3.03542,-1.19082 -1.6578,0 -3.40901,1.05073 -3.40901,1.05073 l 0,-0.81723 -1.72785,0 0,11.67469 1.7512,0" />
    <path
       id="path2907"
       style="font-size:23.34937859px;font-style:normal;font-weight:normal;fill:#132042;fill-opacity:1;stroke:none;font-family:Titillium;-inkscape-font-specification:Titillium"
       d="m 563.99467,465.90456 c -2.28824,0 -3.05877,-1.30757 -3.05877,-3.80595 l 7.7053,0 0.0934,-1.33091 c 0,-3.8293 -1.58777,-5.46376 -4.69323,-5.46376 -2.96537,0 -4.88002,1.70451 -4.88002,6.14089 0,3.96939 1.14412,6.00079 4.62318,6.00079 1.89129,0 4.55313,-0.37359 4.55313,-0.37359 l -0.0467,-1.37761 c 0,0 -2.54509,0.21014 -4.29629,0.21014 m -3.08212,-5.20691 c 0.0233,-2.82527 1.14413,-3.92269 3.12882,-3.92269 2.05474,0 2.94202,1.02737 2.94202,3.92269 l -6.07084,0" />
    <path
       id="path2909"
       style="font-size:23.34937859px;font-style:normal;font-weight:normal;fill:#132042;fill-opacity:1;stroke:none;font-family:Titillium;-inkscape-font-specification:Titillium"
       d="m 573.23773,467.21213 0,-9.47985 c 0,0 1.61111,-0.86393 3.29227,-0.86393 2.17149,0 2.52173,1.14413 2.52173,4.22624 l 0,6.11754 1.72785,0 0,-6.16424 c 0,-4.15618 -0.72383,-5.74395 -3.94604,-5.74395 -1.72786,0 -3.61916,1.05073 -3.61916,1.05073 l 0,-0.81723 -1.72785,0 0,11.67469 1.7512,0" />
    <path
       id="path2911"
       style="font-size:23.34937859px;font-style:normal;font-weight:normal;fill:#132042;fill-opacity:1;stroke:none;font-family:Titillium;-inkscape-font-specification:Titillium"
       d="m 589.984,457.05515 0,-1.51771 -3.71255,0 0,-3.57246 -1.72786,0 0,3.57246 -1.6578,0 0,1.51771 1.6578,0 0,6.14088 c 0,3.36231 0.81724,4.27294 3.22222,4.27294 0.81723,0 2.38164,-0.25684 2.38164,-0.25684 l -0.11675,-1.44766 c 0,0 -1.42431,0.14009 -2.0781,0.14009 -1.5177,0 -1.68115,-0.72383 -1.68115,-3.26891 l 0,-5.5805 3.71255,0" />
    <path
       id="path2913"
       style="font-size:23.34937859px;font-style:normal;font-weight:normal;fill:#132042;fill-opacity:1;stroke:none;font-family:Titillium;-inkscape-font-specification:Titillium"
       d="m 599.94394,455.74758 c 0,0 -2.47503,-0.44364 -4.22623,-0.44364 -2.1248,0 -4.20289,0.84058 -4.20289,3.40901 0,2.33494 1.26087,2.82528 3.89934,3.24557 2.54508,0.39694 3.15217,0.70048 3.15217,1.91465 0,1.58775 -1.02737,2.00804 -2.94202,2.00804 -1.19082,0 -3.85265,-0.39694 -3.85265,-0.39694 l -0.0934,1.51771 c 0,0 2.61514,0.44364 4.10949,0.44364 2.80193,0 4.52978,-0.91063 4.52978,-3.6425 0,-2.26489 -1.09742,-2.84863 -4.01609,-3.33896 -2.47503,-0.42029 -3.03542,-0.72383 -3.03542,-1.82125 0,-1.37762 1.09742,-1.77456 2.54508,-1.77456 1.49436,0 4.08615,0.37359 4.08615,0.37359 l 0.0467,-1.49436" />
  </g>
</svg>
