<?xml version="1.0" encoding="UTF-8" standalone="no"?>
<!-- Created with Inkscape (http://www.inkscape.org/) -->

<svg
   xmlns:dc="http://purl.org/dc/elements/1.1/"
   xmlns:cc="http://creativecommons.org/ns#"
   xmlns:rdf="http://www.w3.org/1999/02/22-rdf-syntax-ns#"
   xmlns:svg="http://www.w3.org/2000/svg"
   xmlns="http://www.w3.org/2000/svg"
   xmlns:sodipodi="http://sodipodi.sourceforge.net/DTD/sodipodi-0.dtd"
   xmlns:inkscape="http://www.inkscape.org/namespaces/inkscape"
   id="svg2"
   version="1.1"
   inkscape:version="0.47 r22583"
   width="228.095"
   height="285.07751"
   xml:space="preserve"
   sodipodi:docname="FAAM.svg"><metadata
     id="metadata8"><rdf:RDF><cc:Work
         rdf:about=""><dc:format>image/svg+xml</dc:format><dc:type
           rdf:resource="http://purl.org/dc/dcmitype/StillImage" /><dc:title></dc:title></cc:Work></rdf:RDF></metadata><defs
     id="defs6"><inkscape:perspective
       sodipodi:type="inkscape:persp3d"
       inkscape:vp_x="0 : 0.5 : 1"
       inkscape:vp_y="0 : 1000 : 0"
       inkscape:vp_z="1 : 0.5 : 1"
       inkscape:persp3d-origin="0.5 : 0.33333333 : 1"
       id="perspective10" /><clipPath
       clipPathUnits="userSpaceOnUse"
       id="clipPath20"><path
         d="M 0,2280.62 0,0 l 1824.76,0 0,2280.62 -1824.76,0 z"
         id="path22" /></clipPath></defs><sodipodi:namedview
     pagecolor="#ffffff"
     bordercolor="#666666"
     borderopacity="1"
     objecttolerance="10"
     gridtolerance="10"
     guidetolerance="10"
     inkscape:pageopacity="0"
     inkscape:pageshadow="2"
     inkscape:window-width="1920"
     inkscape:window-height="1058"
     id="namedview4"
     showgrid="false"
     inkscape:zoom="0.83434343"
     inkscape:cx="79.26755"
     inkscape:cy="262.84473"
     inkscape:window-x="1076"
     inkscape:window-y="-3"
     inkscape:window-maximized="1"
     inkscape:current-layer="g12" /><g
     id="g12"
     inkscape:groupmode="layer"
     inkscape:label="ink_ext_XXXXXX"
     transform="matrix(1.25,0,0,-1.25,-303.23245,534.37532)"><g
       id="g2951"><path
         d="m 272.92146,224.19336 -3.1363,7.1058 -3.1363,-7.1058 6.2726,0 z m 1.6348,-3.7031 -1.2848,2.8691 -6.973,0 -1.2676,-2.8691 -0.9679,0 5.2382,11.6769 0.9844,0 5.2383,-11.6769 -0.9676,0"
         style="fill:#202142;fill-opacity:1;fill-rule:nonzero;stroke:none"
         id="path24" /><path
         d="m 284.78086,220.49026 0.88437,0 0,11.677 -0.88437,0 0,-11.677 z"
         style="fill:#202142;fill-opacity:1;fill-rule:nonzero;stroke:none"
         id="path26" /><path
         d="m 297.07466,225.76126 4.1379,0 c 2.0351,0 2.9359,1.152 2.9527,2.786 0.0164,1.368 -0.9176,2.7859 -2.8527,2.7859 l -4.2379,0 0,-5.5719 z m 8.4082,-5.271 -1.1844,0 -4.0371,4.421 -3.1867,0 0,-4.421 -0.9008,0 0,11.6769 c 1.7183,0 3.4199,0 5.1387,0 2.5351,0 3.8199,-1.818 3.8363,-3.6359 0.0172,-1.902 -1.2344,-3.5711 -3.7863,-3.5711 l 4.1203,-4.4699"
         style="fill:#202142;fill-opacity:1;fill-rule:nonzero;stroke:none"
         id="path28" /><path
         d="m 315.82466,221.35736 3.8875,0 c 1.4676,0 3.3527,0.35 3.3527,2.2028 -0.0164,1.8179 -1.668,2.4691 -3.2363,2.4691 -1.4012,0 -2.6024,0 -4.0039,0 l 0,-4.6719 z m 0,5.5219 4.0039,0 c 1.4015,0 2.8695,0.434 2.8695,2.102 0,1.7019 -1.5351,2.4191 -2.9859,2.4191 l -3.8875,0 0,-4.5211 z m 7.7242,2.102 c 0,-1.2008 -0.734,-2.1352 -1.902,-2.502 1.4684,-0.4 2.3024,-1.5851 2.3024,-2.9371 0,-2.4019 -2.236,-3.0519 -4.2371,-3.0519 -1.702,0 -3.0867,0 -4.7883,0 l 0,11.6769 c 1.6851,0 3.0863,0 4.7883,0 1.9679,0 3.8367,-0.9668 3.8367,-3.1859"
         style="fill:#202142;fill-opacity:1;fill-rule:nonzero;stroke:none"
         id="path30" /><path
         d="m 334.40786,226.32926 c 0.0164,-2.6359 1.6847,-5.2058 5.0043,-5.2058 3.3368,0 5.0218,2.5699 5.0218,5.2058 0,2.702 -1.668,5.1879 -5.0218,5.1879 -3.3528,0 -5.0211,-2.4359 -5.0043,-5.1879 z m 10.8941,-0.0172 c -0.017,-3.0687 -1.969,-6.0226 -5.8898,-6.0226 -3.92,0 -5.8887,2.9699 -5.8887,6.0558 0,3.136 1.952,6.0059 5.8887,6.0059 3.9378,0 5.9058,-2.8859 5.8898,-6.0391"
         style="fill:#202142;fill-opacity:1;fill-rule:nonzero;stroke:none"
         id="path32" /><path
         d="m 356.27596,225.76126 4.138,0 c 2.035,0 2.937,1.152 2.953,2.786 0.017,1.368 -0.918,2.7859 -2.852,2.7859 l -4.239,0 0,-5.5719 z m 8.409,-5.271 -1.185,0 -4.037,4.421 -3.187,0 0,-4.421 -0.9,0 0,11.6769 c 1.719,0 3.42,0 5.139,0 2.535,0 3.819,-1.818 3.836,-3.6359 0.017,-1.902 -1.235,-3.5711 -3.787,-3.5711 l 4.121,-4.4699"
         style="fill:#202142;fill-opacity:1;fill-rule:nonzero;stroke:none"
         id="path34" /><path
         d="m 374.50896,232.16716 7.858,-9.659 0,9.659 0.884,0 0,-11.6769 -0.351,0 -7.874,9.6421 0,-9.6421 -0.901,0 0,11.6769 0.384,0"
         style="fill:#202142;fill-opacity:1;fill-rule:nonzero;stroke:none"
         id="path36" /><path
         d="m 394.65996,226.77926 6.84,0 0,-0.818 -6.84,0 0,-4.6039 7.374,0 0,-0.8671 -8.259,0 0,11.6769 8.058,0 0,-0.85 -7.173,0 0,-4.5379"
         style="fill:#202142;fill-opacity:1;fill-rule:nonzero;stroke:none"
         id="path38" /><path
         d="m 243.48674,211.31636 0,-10.82693 6.57266,0 0,-0.85117 -7.47344,0 0,11.6781 0.90078,0"
         style="fill:#202142;fill-opacity:1;fill-rule:nonzero;stroke:none"
         id="path40" /><path
         d="m 267.34146,203.34138 -3.1364,7.10708 -3.1363,-7.10708 6.2727,0 z m 1.6351,-3.70312 -1.2847,2.86914 -6.9735,0 -1.2676,-2.86914 -0.9679,0 5.2383,11.6781 0.9843,0 5.2383,-11.6781 -0.9672,0"
         style="fill:#202142;fill-opacity:1;fill-rule:nonzero;stroke:none"
         id="path42" /><path
         d="m 280.10156,200.50545 3.8871,0 c 1.4684,0 3.3532,0.35078 3.3532,2.20195 -0.0172,1.81875 -1.668,2.46875 -3.2364,2.46875 -1.4011,0 -2.6023,0 -4.0039,0 l 0,-4.6707 z m 0,5.52265 4.0039,0 c 1.4008,0 2.8692,0.43321 2.8692,2.10118 0,1.70198 -1.5348,2.41918 -2.986,2.41918 l -3.8871,0 0,-4.52036 z m 7.7242,2.10118 c 0,-1.20118 -0.7343,-2.13516 -1.9019,-2.50313 1.4683,-0.39883 2.3016,-1.58477 2.3016,-2.93477 0,-2.40195 -2.2348,-3.05312 -4.2368,-3.05312 -1.7015,0 -3.0863,0 -4.7879,0 l 0,11.6781 c 1.6848,0 3.0864,0 4.7879,0 1.9684,0 3.8371,-0.9679 3.8371,-3.18708"
         style="fill:#202142;fill-opacity:1;fill-rule:nonzero;stroke:none"
         id="path44" /><path
         d="m 298.68436,205.47732 c 0.0172,-2.63594 1.686,-5.20508 5.0051,-5.20508 3.3363,0 5.0215,2.56914 5.0215,5.20508 0,2.70196 -1.668,5.18794 -5.0215,5.18794 -3.3531,0 -5.0211,-2.43598 -5.0051,-5.18794 z m 10.8938,-0.0172 c -0.016,-3.06876 -1.9684,-6.02188 -5.8887,-6.02188 -3.9199,0 -5.8887,2.96992 -5.8887,6.05586 0,3.13516 1.9516,6.00504 5.8887,6.00504 3.9375,0 5.9059,-2.8859 5.8887,-6.03902"
         style="fill:#202142;fill-opacity:1;fill-rule:nonzero;stroke:none"
         id="path46" /><path
         d="m 320.55396,204.91014 4.1375,0 c 2.0351,0 2.9359,1.15117 2.9527,2.78593 0.016,1.36836 -0.9176,2.78629 -2.8527,2.78629 l -4.2375,0 0,-5.57222 z m 8.4082,-5.27188 -1.1848,0 -4.0371,4.42109 -3.1863,0 0,-4.42109 -0.9012,0 0,11.6781 c 1.7187,0 3.4199,0 5.1387,0 2.5351,0 3.8199,-1.8191 3.8367,-3.63708 0.0168,-1.90196 -1.2348,-3.56993 -3.7871,-3.56993 l 4.1211,-4.47109"
         style="fill:#202142;fill-opacity:1;fill-rule:nonzero;stroke:none"
         id="path48" /><path
         d="m 346.04296,203.34138 -3.136,7.10708 -3.1362,-7.10708 6.2722,0 z m 1.635,-3.70312 -1.284,2.86914 -6.974,0 -1.2676,-2.86914 -0.968,0 5.2395,11.6781 0.9831,0 5.239,-11.6781 -0.968,0"
         style="fill:#202142;fill-opacity:1;fill-rule:nonzero;stroke:none"
         id="path50" /><path
         d="m 361.20596,210.49846 -4.221,0 0,0.8 9.342,0 0,-0.8 -4.221,0 0,-10.8602 -0.9,0 0,10.8602"
         style="fill:#202142;fill-opacity:1;fill-rule:nonzero;stroke:none"
         id="path52" /><path
         d="m 376.33496,205.47732 c 0.018,-2.63594 1.686,-5.20508 5.005,-5.20508 3.337,0 5.021,2.56914 5.021,5.20508 0,2.70196 -1.668,5.18794 -5.021,5.18794 -3.353,0 -5.021,-2.43598 -5.005,-5.18794 z m 10.894,-0.0172 c -0.017,-3.06876 -1.968,-6.02188 -5.889,-6.02188 -3.92,0 -5.889,2.96992 -5.889,6.05586 0,3.13516 1.952,6.00504 5.889,6.00504 3.937,0 5.906,-2.8859 5.889,-6.03902"
         style="fill:#202142;fill-opacity:1;fill-rule:nonzero;stroke:none"
         id="path54" /><path
         d="m 398.20396,204.91014 4.138,0 c 2.035,0 2.936,1.15117 2.952,2.78593 0.017,1.36836 -0.917,2.78629 -2.852,2.78629 l -4.238,0 0,-5.57222 z m 8.408,-5.27188 -1.184,0 -4.037,4.42109 -3.187,0 0,-4.42109 -0.9,0 0,11.6781 c 1.719,0 3.42,0 5.138,0 2.536,0 3.82,-1.8191 3.836,-3.63708 0.018,-1.90196 -1.234,-3.56993 -3.787,-3.56993 l 4.121,-4.47109"
         style="fill:#202142;fill-opacity:1;fill-rule:nonzero;stroke:none"
         id="path56" /><path
         d="m 419.59096,204.30935 -4.555,6.98911 0,0.0179 1.051,0 3.954,-6.14021 3.97,6.14021 1.051,0 0,-0.0179 -4.571,-6.98911 0,-4.67109 -0.9,0 0,4.67109"
         style="fill:#202142;fill-opacity:1;fill-rule:nonzero;stroke:none"
         id="path58" /><path
         d="m 416.57296,344.75126 c 0,-45.7021 -37.048,-82.7501 -82.7491,-82.7501 -45.7008,0 -82.74923,37.048 -82.74923,82.7501 0,45.701 37.04843,82.749 82.74923,82.749 45.7011,0 82.7491,-37.048 82.7491,-82.749"
         style="fill:#4dc6f4;fill-opacity:1;fill-rule:nonzero;stroke:none"
         id="path60" /><path
         d="m 399.69496,344.75126 c 0,-36.38 -29.491,-65.872 -65.8711,-65.872 -36.3793,0 -65.8711,29.492 -65.8711,65.872 0,36.38 29.4918,65.871 65.8711,65.871 36.3801,0 65.8711,-29.491 65.8711,-65.871"
         style="fill:#202142;fill-opacity:1;fill-rule:nonzero;stroke:none"
         id="path62" /><path
         d="m 287.10746,336.00526 0,17.492 12.5871,0 0,-3.179 -9.2844,0 0,-4.779 8.7832,0 0,-3.053 -8.7832,0 0,-6.481 -3.3027,0"
         style="fill:#ffffff;fill-opacity:1;fill-rule:nonzero;stroke:none"
         id="path64" /><path
         d="m 317.33436,349.84326 -3.2527,-7.457 6.5063,0 -3.2536,7.457 z m 4.5793,-10.535 -9.1589,0 -1.5008,-3.303 -3.5782,0 7.8571,17.516 3.6035,0 7.8574,-17.516 -3.6035,0 -1.4766,3.303"
         style="fill:#ffffff;fill-opacity:1;fill-rule:nonzero;stroke:none"
         id="path66" /><path
         d="m 343.58296,349.84326 -3.2529,-7.457 6.5059,0 -3.253,7.457 z m 4.579,-10.535 -9.1588,0 -1.5012,-3.303 -3.5785,0 7.8578,17.516 3.6027,0 7.858,-17.516 -3.604,0 -1.476,3.303"
         style="fill:#ffffff;fill-opacity:1;fill-rule:nonzero;stroke:none"
         id="path68" /><path
         d="m 377.23696,348.69226 -5.705,-7.607 -0.65,0 -5.58,7.632 0,-12.737 -3.304,0 0,17.517 3.804,0 5.48,-7.532 5.481,7.532 3.778,0 0,-17.517 -3.304,0 0,12.712"
         style="fill:#ffffff;fill-opacity:1;fill-rule:nonzero;stroke:none"
         id="path70" /></g></g></svg>