<?xml version="1.0" encoding="UTF-8" standalone="no"?>
<!-- Created with Inkscape (http://www.inkscape.org/) -->

<svg
   xmlns:dc="http://purl.org/dc/elements/1.1/"
   xmlns:cc="http://creativecommons.org/ns#"
   xmlns:rdf="http://www.w3.org/1999/02/22-rdf-syntax-ns#"
   xmlns:svg="http://www.w3.org/2000/svg"
   xmlns="http://www.w3.org/2000/svg"
   xmlns:sodipodi="http://sodipodi.sourceforge.net/DTD/sodipodi-0.dtd"
   xmlns:inkscape="http://www.inkscape.org/namespaces/inkscape"
   id="svg2"
   version="1.1"
   inkscape:version="0.47 r22583"
   width="206.87291"
   height="206.87387"
   xml:space="preserve"
   sodipodi:docname="FAAM.svg"><metadata
     id="metadata8"><rdf:RDF><cc:Work
         rdf:about=""><dc:format>image/svg+xml</dc:format><dc:type
           rdf:resource="http://purl.org/dc/dcmitype/StillImage" /><dc:title></dc:title></cc:Work></rdf:RDF></metadata><defs
     id="defs6"><inkscape:perspective
       sodipodi:type="inkscape:persp3d"
       inkscape:vp_x="0 : 0.5 : 1"
       inkscape:vp_y="0 : 1000 : 0"
       inkscape:vp_z="1 : 0.5 : 1"
       inkscape:persp3d-origin="0.5 : 0.33333333 : 1"
       id="perspective10" /><clipPath
       clipPathUnits="userSpaceOnUse"
       id="clipPath20"><path
         d="M 0,2280.62 0,0 l 1824.76,0 0,2280.62 -1824.76,0 z"
         id="path22" /></clipPath></defs><sodipodi:namedview
     pagecolor="#ffffff"
     bordercolor="#666666"
     borderopacity="1"
     objecttolerance="10"
     gridtolerance="10"
     guidetolerance="10"
     inkscape:pageopacity="0"
     inkscape:pageshadow="2"
     inkscape:window-width="1080"
     inkscape:window-height="1868"
     id="namedview4"
     showgrid="false"
     inkscape:zoom="4.7710452"
     inkscape:cx="103.43645"
     inkscape:cy="103.43694"
     inkscape:window-x="-4"
     inkscape:window-y="27"
     inkscape:window-maximized="1"
     inkscape:current-layer="g12" /><g
     id="g12"
     inkscape:groupmode="layer"
     inkscape:label="ink_ext_XXXXXX"
     transform="matrix(1.25,0,0,-1.25,-313.84329,534.37532)"><g
       id="g2863"><path
         d="m 416.57296,344.75126 c 0,-45.7021 -37.048,-82.7501 -82.7491,-82.7501 -45.7008,0 -82.74923,37.048 -82.74923,82.7501 0,45.701 37.04843,82.749 82.74923,82.749 45.7011,0 82.7491,-37.048 82.7491,-82.749"
         style="fill:#4dc6f4;fill-opacity:1;fill-rule:nonzero;stroke:none"
         id="path60" /><path
         d="m 399.69496,344.75126 c 0,-36.38 -29.491,-65.872 -65.8711,-65.872 -36.3793,0 -65.8711,29.492 -65.8711,65.872 0,36.38 29.4918,65.871 65.8711,65.871 36.3801,0 65.8711,-29.491 65.8711,-65.871"
         style="fill:#202142;fill-opacity:1;fill-rule:nonzero;stroke:none"
         id="path62" /><path
         d="m 287.10746,336.00526 0,17.492 12.5871,0 0,-3.179 -9.2844,0 0,-4.779 8.7832,0 0,-3.053 -8.7832,0 0,-6.481 -3.3027,0"
         style="fill:#ffffff;fill-opacity:1;fill-rule:nonzero;stroke:none"
         id="path64" /><path
         d="m 317.33436,349.84326 -3.2527,-7.457 6.5063,0 -3.2536,7.457 z m 4.5793,-10.535 -9.1589,0 -1.5008,-3.303 -3.5782,0 7.8571,17.516 3.6035,0 7.8574,-17.516 -3.6035,0 -1.4766,3.303"
         style="fill:#ffffff;fill-opacity:1;fill-rule:nonzero;stroke:none"
         id="path66" /><path
         d="m 343.58296,349.84326 -3.2529,-7.457 6.5059,0 -3.253,7.457 z m 4.579,-10.535 -9.1588,0 -1.5012,-3.303 -3.5785,0 7.8578,17.516 3.6027,0 7.858,-17.516 -3.604,0 -1.476,3.303"
         style="fill:#ffffff;fill-opacity:1;fill-rule:nonzero;stroke:none"
         id="path68" /><path
         d="m 377.23696,348.69226 -5.705,-7.607 -0.65,0 -5.58,7.632 0,-12.737 -3.304,0 0,17.517 3.804,0 5.48,-7.532 5.481,7.532 3.778,0 0,-17.517 -3.304,0 0,12.712"
         style="fill:#ffffff;fill-opacity:1;fill-rule:nonzero;stroke:none"
         id="path70" /></g></g></svg>